<?xml version="1.0" standalone="no"?>
<!-- Generator: Gravit.io -->
<svg xmlns="http://www.w3.org/2000/svg" xmlns:xlink="http://www.w3.org/1999/xlink" style="isolation:isolate" viewBox="77.60217734218568 35.5 644.7956453156244 729"><path
    d="M 681.9873228247826 34.99999999999999 L 722 71.00000000000009 C 686.8902169920082 114.00605658074073 671.3172755780613 124.66666666666673 655.9790826608914 197 C 636.2893491484928 289.85474925818147 687.8929820183101 337.47462447498407 665.9822519546958 423.0000000000001 C 653.0206300781001 473.59382207672144 642.4738822719775 503.34138635479263 610.964820838772 545.0000000000001 C 602.2818317974669 556.4799130568924 593.1804669450889 560.0219183910048 586.9572145336416 573 C 581.7586783866681 583.8411200289279 580.2298255395392 590.9807630694085 579.9549960279785 603 C 579.5456823007736 620.9006928272984 587.6783487710236 629.8905464933201 592.9591161099241 647 C 602.0641781995399 676.4999999999999 604.2565824486871 693.9681040845824 600.9616515449676 723.9999999999999 C 599.2166009243784 739.9053953288258 597.1966232036148 748.880229699078 591.9587991805438 764 L 511.93344483010907 764 C 467.3841632272795 694.9040965856832 405.9442361890628 663.8671614606508 323.87386210658775 669 C 250.7021586378178 673.5762986187553 201.54144199166296 702.3959801321386 161.82251954695758 764 L 81.79716519652297 764 C 76.44577794531091 734.4066142343781 75.76426169715567 716.9199059166931 78.79621440838167 687 C 85.3523988928391 622.3022815227845 103.83311461431205 584.4987684829783 144.81713174749024 534 C 164.4770690995629 509.7758586351896 176.92820201690154 496.3871712428811 202.83551365155532 479 C 221.38979449035304 466.5476675163368 232.8718044512655 460.6959483924901 253.8516770499574 453 C 258.3349524242654 466.2523593988887 261.4393856312039 473.56763353280195 267.8561140612835 486 C 276.39592437842003 502.5458227786628 282.2055519976295 511.4808796415649 293.86435422517474 526 C 283.23889436528043 503.17315270498466 278.53992100869425 489.52807843221706 272.8576987081857 465.00000000000006 C 266.38951431076754 437.0792102414068 264.589416401745 420.6585210204373 264.8551632731422 392 C 296.17952025806363 408.3102286470056 317.56680510885343 413.41239550527183 352.88305305862025 413.00000000000006 C 375.85798095404317 412.73171677207915 389.2431883728569 410.6682729245284 410.90143496268547 403.00000000000006 C 439.68934013607236 392.8074152550011 448.2472462348429 371.50554394242715 476.9223523017939 361 C 497.48166921562245 353.4677939547929 510.0434158393298 350.0684900818988 531.9397834177178 349.99999999999994 C 550.936719650504 349.94057910684256 561.298698752336 354.41927899324065 579.9549960279785 357.9999999999999 C 585.8196518927765 359.12560901781393 589.0487632237266 361.84956778897276 594.959749968685 361 C 612.3655135493073 358.498323593236 601.9619684743514 341.33333333333326 596.9603838274459 315.9999999999999 C 587.359043710805 267.368622787919 583.6077499232786 238.90419001798645 592.9591161099243 191 C 606.3884599286489 122.20557731688733 629.5817589082508 81.56503456838294 681.9873228247826 34.99999999999999 Z M 510.53517916123025 434.5000000000001 C 510.5351791612302 422.3578693509447 520.3961727606007 412.5000000000001 532.5421516075996 412.5 C 544.6881304545988 412.5000000000001 554.5491240539693 422.3578693509447 554.5491240539693 434.50000000000006 C 554.5491240539693 446.64213064905533 544.6881304545988 456.5000000000001 532.5421516075996 456.5 C 520.3961727606007 456.5 510.5351791612302 446.64213064905533 510.53517916123025 434.5000000000001 Z"
    style="stroke:none;fill:#FFFFFF;stroke-miterlimit:10;fill-rule:evenodd;"/></svg>
