<?xml version="1.0" standalone="no"?>
<!DOCTYPE svg PUBLIC "-//W3C//DTD SVG 20010904//EN"
 "http://www.w3.org/TR/2001/REC-SVG-20010904/DTD/svg10.dtd">
<svg version="1.0" xmlns="http://www.w3.org/2000/svg"
 width="676.000000pt" height="676.000000pt" viewBox="0 0 676.000000 676.000000"
 preserveAspectRatio="xMidYMid meet">
<metadata>
Created by potrace 1.13, written by Peter Selinger 2001-2015
</metadata>
<g transform="translate(0.000000,676.000000) scale(0.100000,-0.100000)"
fill="#FFFFFF" stroke="none">
<path d="M5348 6107 c-16 -6 -28 -19 -28 -28 0 -10 -5 -21 -10 -24 -6 -4 -40
-50 -75 -103 -36 -54 -88 -128 -116 -167 -28 -38 -60 -88 -70 -110 -11 -22
-35 -62 -55 -90 -19 -27 -74 -126 -121 -220 -47 -93 -89 -174 -93 -180 -14
-18 -58 -139 -74 -200 -24 -97 -27 -155 -28 -450 -1 -280 8 -417 36 -551 8
-39 22 -118 31 -174 15 -101 14 -104 -5 -122 -34 -32 -73 -33 -122 -4 -119 69
-307 95 -453 63 -38 -9 -83 -19 -100 -22 -29 -6 -50 -14 -110 -40 -16 -8 -48
-19 -70 -26 -58 -17 -163 -80 -282 -170 -58 -44 -107 -79 -110 -79 -3 0 -27
-13 -54 -30 -51 -31 -109 -50 -254 -81 -76 -16 -117 -19 -260 -15 -225 6 -389
34 -537 93 -71 28 -93 33 -115 26 -28 -10 -28 -10 -28 -104 0 -52 5 -112 12
-134 6 -22 26 -107 43 -190 17 -82 41 -177 52 -210 11 -33 27 -80 35 -105 8
-25 30 -85 49 -134 18 -50 32 -92 29 -94 -5 -6 -110 149 -108 159 2 5 -1 9 -5
9 -11 0 -114 206 -143 284 -31 84 -74 122 -86 76 -5 -18 -21 -25 -46 -21 -5 1
-52 -17 -105 -40 -89 -39 -172 -91 -257 -161 -18 -16 -35 -28 -38 -28 -15 0
-207 -181 -207 -195 0 -4 -10 -18 -23 -30 -46 -45 -144 -170 -164 -210 -9 -16
-35 -60 -59 -97 -24 -37 -44 -72 -44 -78 0 -5 -9 -27 -20 -47 -11 -21 -20 -45
-20 -54 0 -9 -15 -36 -33 -60 -18 -24 -39 -66 -47 -94 -7 -27 -23 -70 -36 -95
-12 -25 -30 -72 -40 -105 -9 -33 -21 -65 -26 -72 -13 -16 -68 -193 -68 -218 0
-11 -7 -32 -14 -47 -8 -15 -20 -81 -26 -145 -6 -65 -18 -163 -26 -218 -9 -55
-16 -104 -16 -110 -1 -31 11 -127 16 -132 3 -4 6 -19 6 -34 0 -23 6 -30 35
-39 63 -21 243 -25 445 -11 69 5 143 10 165 10 44 2 42 -1 138 146 36 54 80
103 142 157 85 73 137 105 310 184 33 16 83 45 110 65 28 21 72 49 99 63 27
14 54 30 60 34 26 20 176 71 231 78 104 15 274 11 335 -8 30 -10 102 -22 159
-28 98 -11 151 -26 248 -70 24 -11 45 -20 49 -20 9 0 157 -73 209 -104 53 -31
119 -89 194 -171 25 -27 81 -84 123 -126 70 -70 148 -161 148 -175 0 -6 16
-26 48 -61 18 -20 29 -24 50 -18 86 21 522 39 549 22 28 -17 73 63 73 130 0
17 4 34 10 38 5 3 7 24 5 46 -2 22 -5 97 -6 167 -1 70 -8 168 -15 217 -8 50
-16 133 -18 185 -3 52 -7 106 -9 120 -3 14 -8 50 -12 80 -3 30 -13 75 -20 100
-26 83 -55 185 -61 210 -7 37 16 149 40 195 35 67 133 182 161 189 14 4 32 20
43 39 24 47 131 205 142 212 6 4 10 15 10 27 0 11 8 32 19 46 35 51 122 242
142 312 6 19 14 44 19 55 73 165 80 469 19 800 -12 61 -24 133 -29 162 -4 28
-11 56 -14 62 -3 5 -6 112 -7 238 0 125 -4 257 -7 293 -25 222 46 562 163 790
12 25 28 63 35 85 7 22 28 64 46 93 19 29 34 57 34 62 0 6 4 10 8 10 4 0 15
13 24 28 19 32 119 154 184 224 24 26 44 54 44 63 0 9 7 18 15 21 18 7 20 36
3 33 -18 -3 -50 12 -68 30 -8 9 -23 21 -32 26 -9 6 -57 38 -107 73 -92 62
-113 69 -163 49z m-1034 -2882 c20 -14 40 -25 44 -25 4 0 20 -14 35 -31 37
-43 36 -92 -3 -151 -40 -60 -60 -77 -113 -93 -92 -28 -160 39 -160 159 0 61
16 95 67 138 39 35 82 36 130 3z"/>
</g>
</svg>
